<?xml version="1.0" encoding="UTF-8"?>
<svg version="1.1" xmlns="http://www.w3.org/2000/svg" width="207" height="140">
<path d="M0 0 C68.31 0 136.62 0 207 0 C207 46.2 207 92.4 207 140 C138.69 140 70.38 140 0 140 C0 93.8 0 47.6 0 0 Z " fill="#FCFEFE" transform="translate(0,0)"/>
<path d="M0 0 C9.24 0 18.48 0 28 0 C28 4.62 28 9.24 28 14 C29.98 14 31.96 14 34 14 C34.495 15.485 34.495 15.485 35 17 C23.45 17 11.9 17 0 17 C0.83815138 12.80924309 1.50669849 10.71926157 3.5625 7.1875 C4.01753906 6.39730469 4.47257812 5.60710937 4.94140625 4.79296875 C5.46541016 3.90544922 5.46541016 3.90544922 6 3 C4.02 3 2.04 3 0 3 C0 2.01 0 1.02 0 0 Z " fill="#F2FAFE" transform="translate(95,115)"/>
<path d="M0 0 C2.93848614 1.560886 5.07929948 3.27116612 7 6 C7.68138271 9.10523264 7.7013758 11.89656725 7 15 C6.34 15.66 5.68 16.32 5 17 C4.53603307 19.89223503 4.53603307 19.89223503 4.375 23.125 C4.25125 25.06375 4.1275 27.0025 4 29 C-0.29 29 -4.58 29 -9 29 C-9.16276042 26.23307292 -9.32552083 23.46614583 -9.48828125 20.69921875 C-10.06336736 17.66574925 -10.79759406 17.01645082 -13 15 C-13.55404884 10.01356041 -13.09180828 6.97518207 -10 3 C-6.82293791 -0.17706209 -4.42829253 -0.78146339 0 0 Z " fill="#2EBCF0" transform="translate(106,57)"/>
<path d="M0 0 C3.96018273 1.98997535 7.03159442 4.22993417 9.1796875 8.15625 C10.2991702 12.03712336 10.46321334 15.79142731 10.625 19.8125 C10.68300781 20.99489258 10.68300781 20.99489258 10.7421875 22.20117188 C10.83588844 24.1337538 10.91900779 26.06684376 11 28 C6.38 28 1.76 28 -3 28 C-3 27.01 -3 26.02 -3 25 C0.3 25 3.6 25 7 25 C6.93965068 22.77009273 6.8507725 20.5409464 6.75 18.3125 C6.70359375 17.07113281 6.6571875 15.82976563 6.609375 14.55078125 C5.91992842 10.53342905 4.8809636 8.8336485 2 6 C-2.05413004 4.64862332 -5.76581115 4.31658706 -10 5 C-12.75569447 7.18159145 -14.43588747 8.87177494 -16 12 C-16.22950319 14.204364 -16.41075933 16.41392173 -16.5625 18.625 C-16.64628906 19.81351563 -16.73007813 21.00203125 -16.81640625 22.2265625 C-16.87699219 23.14179687 -16.93757813 24.05703125 -17 25 C-14.03 25 -11.06 25 -8 25 C-8 25.99 -8 26.98 -8 28 C-12.62 28 -17.24 28 -22 28 C-22 27.01 -22 26.02 -22 25 C-21.34 25 -20.68 25 -20 25 C-20.03480469 24.05898438 -20.06960937 23.11796875 -20.10546875 22.1484375 C-20.13253906 20.90320313 -20.15960938 19.65796875 -20.1875 18.375 C-20.22230469 17.14523438 -20.25710937 15.91546875 -20.29296875 14.6484375 C-19.92079671 10.01365504 -18.59695397 6.82145944 -15.52734375 3.3203125 C-10.62272928 -0.36718634 -6.03395878 -1.33669602 0 0 Z " fill="#35BFF0" transform="translate(109,16)"/>
<path d="M0 0 C6.65050424 -0.24991456 12.56986533 0.26044666 19 2 C17.39749629 7.20813707 15.25140683 12.04690498 13 17 C8.71 17 4.42 17 0 17 C0.83815138 12.80924309 1.50669849 10.71926157 3.5625 7.1875 C4.01753906 6.39730469 4.47257812 5.60710937 4.94140625 4.79296875 C5.46541016 3.90544922 5.46541016 3.90544922 6 3 C4.02 3 2.04 3 0 3 C0 2.01 0 1.02 0 0 Z " fill="#EBF8FD" transform="translate(95,115)"/>
<path d="M0 0 C3.375 0.75 3.375 0.75 4.375 1.75 C4.50037741 3.89307896 4.55074364 6.04078886 4.5625 8.1875 C4.57667969 9.36183594 4.59085938 10.53617188 4.60546875 11.74609375 C4.375 14.75 4.375 14.75 2.375 16.75 C-2.83824162 17.30460017 -2.83824162 17.30460017 -5.29296875 15.57421875 C-7.1203585 13.07160581 -7.02477723 11.32237596 -7 8.25 C-7.00773437 7.2909375 -7.01546875 6.331875 -7.0234375 5.34375 C-6.625 2.75 -6.625 2.75 -5.328125 0.890625 C-3.625 -0.25 -3.625 -0.25 0 0 Z " fill="#34BEF0" transform="translate(28.625,115.25)"/>
<path d="M0 0 C4 2 4 2 5.046875 4.1640625 C5.27890625 4.97617188 5.5109375 5.78828125 5.75 6.625 C5.99234375 7.44226563 6.2346875 8.25953125 6.484375 9.1015625 C6.73960937 10.04128906 6.73960937 10.04128906 7 11 C7.66 11 8.32 11 9 11 C9.20496094 10.37351562 9.40992188 9.74703125 9.62109375 9.1015625 C9.89050781 8.28429687 10.15992188 7.46703125 10.4375 6.625 C10.70433594 5.81289062 10.97117188 5.00078125 11.24609375 4.1640625 C12 2 12 2 13 0 C13.99 0 14.98 0 16 0 C16 5.61 16 11.22 16 17 C15.01 17 14.02 17 13 17 C12.67 15.02 12.34 13.04 12 11 C11.01 12.98 10.02 14.96 9 17 C8.34 17 7.68 17 7 17 C6.01 15.02 5.02 13.04 4 11 C3.67 12.98 3.34 14.96 3 17 C2.01 17 1.02 17 0 17 C0 11.39 0 5.78 0 0 Z " fill="#50C7F2" transform="translate(178,115)"/>
<path d="M0 0 C7 0 7 0 10 2 C10.36328125 4.96875 10.36328125 4.96875 10.3125 8.5 C10.30863281 9.6653125 10.30476563 10.830625 10.30078125 12.03125 C10 15 10 15 8 17 C5.36 17 2.72 17 0 17 C0 11.39 0 5.78 0 0 Z " fill="#34BEF0" transform="translate(49,115)"/>
<path d="M0 0 C0.99 0.33 1.98 0.66 3 1 C3.33 3.64 3.66 6.28 4 9 C4.66 9 5.32 9 6 9 C6.33 6.36 6.66 3.72 7 1 C8.32 1 9.64 1 11 1 C11.33 3.97 11.66 6.94 12 10 C12.66 10 13.32 10 14 10 C14.33 7.03 14.66 4.06 15 1 C15.99 0.67 16.98 0.34 18 0 C17.25339288 5.72398793 16.17122859 11.34853777 15 17 C13.68 16.67 12.36 16.34 11 16 C10.67 13.03 10.34 10.06 10 7 C9.34 7 8.68 7 8 7 C8.04125 7.9075 8.0825 8.815 8.125 9.75 C8.00468444 12.8782046 7.6085292 14.38614006 6 17 C5.34 17 4.68 17 4 17 C3.32389577 15.10751181 2.65949561 13.2108398 2 11.3125 C1.62875 10.25675781 1.2575 9.20101562 0.875 8.11328125 C0.0608143 5.21637944 -0.17709796 2.98299377 0 0 Z " fill="#4AC5F2" transform="translate(2,115)"/>
<path d="M0 0 C3.625 0.1875 3.625 0.1875 6.625 2.1875 C7.05405061 6.13476562 6.70966413 8.79992079 4.625 12.1875 C5.285 12.8475 5.945 13.5075 6.625 14.1875 C6.625 15.1775 6.625 16.1675 6.625 17.1875 C3.14366169 15.79496468 2.14613967 14.55573784 0.625 11.1875 C-0.035 10.8575 -0.695 10.5275 -1.375 10.1875 C-1.375 12.4975 -1.375 14.8075 -1.375 17.1875 C-2.365 17.1875 -3.355 17.1875 -4.375 17.1875 C-4.40184679 14.54159986 -4.42176357 11.89596904 -4.4375 9.25 C-4.44587891 8.49525391 -4.45425781 7.74050781 -4.46289062 6.96289062 C-4.47152441 5.03755687 -4.42724333 3.11214419 -4.375 1.1875 C-3.375 0.1875 -3.375 0.1875 0 0 Z " fill="#4CC6F2" transform="translate(39.375,114.8125)"/>
<path d="M0 0 C0.99 0.33 1.98 0.66 3 1 C4.16796875 3.8359375 4.16796875 3.8359375 5.1875 7.375 C5.53167969 8.53773437 5.87585938 9.70046875 6.23046875 10.8984375 C7 14 7 14 7 17 C6.01 17 5.02 17 4 17 C4 16.01 4 15.02 4 14 C2.02 14 0.04 14 -2 14 C-2.33 14.99 -2.66 15.98 -3 17 C-3.66 17 -4.32 17 -5 17 C-3.96232949 10.93267948 -2.66038099 5.5626148 0 0 Z " fill="#40C2F1" transform="translate(169,115)"/>
<path d="M0 0 C1.23556641 0.01740234 1.23556641 0.01740234 2.49609375 0.03515625 C3.32238281 0.04417969 4.14867187 0.05320312 5 0.0625 C5.63808594 0.07410156 6.27617187 0.08570312 6.93359375 0.09765625 C6.93359375 1.08765625 6.93359375 2.07765625 6.93359375 3.09765625 C4.62359375 3.09765625 2.31359375 3.09765625 -0.06640625 3.09765625 C-0.06640625 4.41765625 -0.06640625 5.73765625 -0.06640625 7.09765625 C1.58359375 7.09765625 3.23359375 7.09765625 4.93359375 7.09765625 C4.93359375 8.08765625 4.93359375 9.07765625 4.93359375 10.09765625 C3.28359375 10.09765625 1.63359375 10.09765625 -0.06640625 10.09765625 C-0.06640625 11.41765625 -0.06640625 12.73765625 -0.06640625 14.09765625 C2.24359375 14.09765625 4.55359375 14.09765625 6.93359375 14.09765625 C6.93359375 15.08765625 6.93359375 16.07765625 6.93359375 17.09765625 C3.63359375 17.09765625 0.33359375 17.09765625 -3.06640625 17.09765625 C-3.09325304 14.45175611 -3.11316982 11.80612529 -3.12890625 9.16015625 C-3.13728516 8.40541016 -3.14566406 7.65066406 -3.15429688 6.87304688 C-3.16293066 4.94771312 -3.11864958 3.02230044 -3.06640625 1.09765625 C-2.06640625 0.09765625 -2.06640625 0.09765625 0 0 Z " fill="#47C4F2" transform="translate(135.06640625,114.90234375)"/>
<path d="M0 0 C7 0 7 0 10 2 C10.3125 5 10.3125 5 10 8 C8 10 8 10 4.875 10.125 C3.92625 10.08375 2.9775 10.0425 2 10 C2 12.31 2 14.62 2 17 C1.34 17 0.68 17 0 17 C0 11.39 0 5.78 0 0 Z " fill="#39C0F1" transform="translate(69,115)"/>
<path d="M0 0 C0.99 0.66 1.98 1.32 3 2 C3 3.32 3 4.64 3 6 C2.01 6 1.02 6 0 6 C-0.33 5.01 -0.66 4.02 -1 3 C-1.99 3 -2.98 3 -4 3 C-4 6.63 -4 10.26 -4 14 C-3.01 14 -2.02 14 -1 14 C-0.67 13.01 -0.34 12.02 0 11 C-0.99 11 -1.98 11 -3 11 C-3 10.34 -3 9.68 -3 9 C-1.02 9 0.96 9 3 9 C2.125 15.875 2.125 15.875 1 17 C-2.4375 17.25 -2.4375 17.25 -6 17 C-8.22264871 13.66602694 -8.29675463 12.40485109 -8.3125 8.5 C-8.32925781 7.5409375 -8.34601563 6.581875 -8.36328125 5.59375 C-8 3 -8 3 -6.63671875 1.17578125 C-4.32088722 -0.48785906 -2.78763818 -0.34845477 0 0 Z " fill="#4FC7F2" transform="translate(160,115)"/>
<path d="M0 0 C3.3 0 6.6 0 10 0 C10 0.99 10 1.98 10 3 C7.69 3 5.38 3 3 3 C3 4.32 3 5.64 3 7 C4.65 7.33 6.3 7.66 8 8 C8 8.66 8 9.32 8 10 C6.02 10 4.04 10 2 10 C2 11.65 2 13.3 2 15 C4.64 15 7.28 15 10 15 C10 15.66 10 16.32 10 17 C6.7 17 3.4 17 0 17 C0 11.39 0 5.78 0 0 Z " fill="#47C4F2" transform="translate(196,115)"/>
<path d="M0 0 C0.66 0 1.32 0 2 0 C2.33 4.62 2.66 9.24 3 14 C4.32 14 5.64 14 7 14 C7.33 9.38 7.66 4.76 8 0 C8.99 0 9.98 0 11 0 C11.08097324 2.27024968 11.13917704 4.54132075 11.1875 6.8125 C11.22230469 8.07707031 11.25710937 9.34164062 11.29296875 10.64453125 C11 14 11 14 9.6796875 15.9296875 C7.0913519 17.57899902 4.98593333 17.31765248 2 17 C0 15 0 15 -0.1953125 11.5234375 C-0.18201493 10.14049032 -0.15816232 8.75761346 -0.125 7.375 C-0.11597656 6.66859375 -0.10695313 5.9621875 -0.09765625 5.234375 C-0.07407603 3.48943902 -0.03820461 1.74467705 0 0 Z " fill="#33BEF0" transform="translate(82,115)"/>
<path d="M0 0 C0 4.95 0 9.9 0 15 C2.97 15 5.94 15 9 15 C9 15.99 9 16.98 9 18 C4.38 18 -0.24 18 -5 18 C-5 17.01 -5 16.02 -5 15 C-4.34 15 -3.68 15 -3 15 C-3 10.38 -3 5.76 -3 1 C-1 0 -1 0 0 0 Z " fill="#30BDF0" transform="translate(92,26)"/>
<path d="M0 0 C3.3 0 6.6 0 10 0 C9.42176904 4.06225548 8.10882263 6.84762346 5.9375 10.3125 C5.38964844 11.19550781 4.84179688 12.07851562 4.27734375 12.98828125 C3.85582031 13.65214844 3.43429688 14.31601563 3 15 C5.31 15 7.62 15 10 15 C10 15.66 10 16.32 10 17 C6.7 17 3.4 17 0 17 C0.58107632 13.2397015 1.65199496 10.46964968 3.5625 7.1875 C4.01753906 6.39730469 4.47257812 5.60710937 4.94140625 4.79296875 C5.46541016 3.90544922 5.46541016 3.90544922 6 3 C4.02 3 2.04 3 0 3 C0 2.01 0 1.02 0 0 Z " fill="#3CC1F1" transform="translate(95,115)"/>
<path d="M0 0 C3.3 0 6.6 0 10 0 C9.05261485 3.7895406 7.82863856 6.37009279 5.9375 9.75 C5.38964844 10.73484375 4.84179688 11.7196875 4.27734375 12.734375 C3.85582031 13.48203125 3.43429688 14.2296875 3 15 C5.31 15 7.62 15 10 15 C10 15.66 10 16.32 10 17 C6.7 17 3.4 17 0 17 C0.60355408 13.14974121 1.76772603 10.13898841 3.5625 6.6875 C4.01753906 5.80449219 4.47257812 4.92148438 4.94140625 4.01171875 C5.46541016 3.01591797 5.46541016 3.01591797 6 2 C4.02 2 2.04 2 0 2 C0 1.34 0 0.68 0 0 Z " fill="#41C2F1" transform="translate(108,115)"/>
<path d="M0 0 C0.99 0 1.98 0 3 0 C3 4.62 3 9.24 3 14 C4.98 14 6.96 14 9 14 C9.33 14.99 9.66 15.98 10 17 C6.7 17 3.4 17 0 17 C0 11.39 0 5.78 0 0 Z " fill="#58CAF3" transform="translate(120,115)"/>
<path d="M0 0 C1.98 0 3.96 0 6 0 C6 3.63 6 7.26 6 11 C4.35 11.33 2.7 11.66 1 12 C0 11 0 11 -0.09765625 8.49609375 C-0.08605469 7.48675781 -0.07445313 6.47742188 -0.0625 5.4375 C-0.05347656 4.42558594 -0.04445313 3.41367188 -0.03515625 2.37109375 C-0.02355469 1.58863281 -0.01195313 0.80617188 0 0 Z " fill="#E8F8FD" transform="translate(25,118)"/>
<path d="M0 0 C1.65 0 3.3 0 5 0 C6.58894072 1.58894072 6.16998411 3.24801424 6.1875 5.4375 C6.20167969 6.24058594 6.21585938 7.04367188 6.23046875 7.87109375 C6 10 6 10 4 12 C2.68 12 1.36 12 0 12 C0 8.04 0 4.08 0 0 Z " fill="#F1FAFE" transform="translate(51,118)"/>
<path d="M0 0 C0 0.33 0 0.66 0 1 C-2.64 1.33 -5.28 1.66 -8 2 C-6.35 2.33 -4.7 2.66 -3 3 C-3 3.33 -3 3.66 -3 4 C-3.60328125 4.07476563 -4.2065625 4.14953125 -4.828125 4.2265625 C-9.5883991 4.9055851 -9.5883991 4.9055851 -13.48828125 7.46875 C-14.70687494 9.28018236 -14.70687494 9.28018236 -16 12 C-16.99 11.67 -17.98 11.34 -19 11 C-19 8.14348803 -18.41345925 6.46095849 -16.50390625 4.33203125 C-11.15994551 -0.19474434 -6.8509995 -0.7581024 0 0 Z " fill="#3EC2F1" transform="translate(109,16)"/>
<path d="M0 0 C0.99 0.33 1.98 0.66 3 1 C3 5.29 3 9.58 3 14 C1.68 14 0.36 14 -1 14 C-1.02685938 11.85423363 -1.04633088 9.70837355 -1.0625 7.5625 C-1.07410156 6.36753906 -1.08570313 5.17257813 -1.09765625 3.94140625 C-1 1 -1 1 0 0 Z " fill="#57C9F3" transform="translate(133,73)"/>
<path d="M0 0 C1.32 0 2.64 0 4 0 C4 4.29 4 8.58 4 13 C2.68 13 1.36 13 0 13 C0 8.71 0 4.42 0 0 Z " fill="#55C9F2" transform="translate(72,75)"/>
<path d="M0 0 C1.32 0.33 2.64 0.66 4 1 C4 4.96 4 8.92 4 13 C2.68 13 1.36 13 0 13 C0 8.71 0 4.42 0 0 Z " fill="#53C8F2" transform="translate(72,56)"/>
<path d="M0 0 C0.99 0 1.98 0 3 0 C3 4.29 3 8.58 3 13 C1.68 13 0.36 13 -1 13 C-1.02686553 11.02090602 -1.04633375 9.04171029 -1.0625 7.0625 C-1.07410156 5.96035156 -1.08570313 4.85820313 -1.09765625 3.72265625 C-1 1 -1 1 0 0 Z " fill="#53C8F2" transform="translate(133,55)"/>
<path d="M0 0 C0.33 0 0.66 0 1 0 C1 4.95 1 9.9 1 15 C0.01 15.33 -0.98 15.66 -2 16 C-3.6875 14.0625 -3.6875 14.0625 -5 11 C-4.2560575 6.76973872 -3.05831462 3.05831462 0 0 Z " fill="#D3F1FB" transform="translate(48,116)"/>
<path d="M0 0 C0.99 0 1.98 0 3 0 C3.3125 2.25 3.3125 2.25 3 5 C0.43025001 7.71659284 -1.05344589 8.91586186 -4.8125 9.25 C-5.534375 9.1675 -6.25625 9.085 -7 9 C-7 7.68 -7 6.36 -7 5 C-5.02 4.67 -3.04 4.34 -1 4 C-0.67 2.68 -0.34 1.36 0 0 Z " fill="#42C3F1" transform="translate(125,87)"/>
<path d="M0 0 C0.99 0.33 1.98 0.66 3 1 C2.6567585 4.08917348 2.17806461 5.77105979 0.25 8.25 C-2.22894021 10.17806461 -3.91082652 10.6567585 -7 11 C-6.75 9.125 -6.75 9.125 -6 7 C-5.360625 6.690625 -4.72125 6.38125 -4.0625 6.0625 C-1.73547609 5.12720697 -1.73547609 5.12720697 -0.75 2.375 C-0.5025 1.59125 -0.255 0.8075 0 0 Z " fill="#3DC1F1" transform="translate(133,92)"/>
<path d="M0 0 C4.95 0 9.9 0 15 0 C14.67 0.99 14.34 1.98 14 3 C9.38 3 4.76 3 0 3 C0 2.01 0 1.02 0 0 Z " fill="#3BC1F1" transform="translate(98,93)"/>
<path d="M0 0 C3 1 3 1 4 3 C4.07033769 4.87379605 4.0843022 6.75001102 4.0625 8.625 C4.05347656 9.62789062 4.04445312 10.63078125 4.03515625 11.6640625 C4.02355469 12.43492188 4.01195312 13.20578125 4 14 C3.01 14 2.02 14 1 14 C0.83081732 12.41693353 0.66476064 10.83353281 0.5 9.25 C0.4071875 8.36828125 0.314375 7.4865625 0.21875 6.578125 C0 4 0 4 0 0 Z " fill="#3DC1F1" transform="translate(124,49)"/>
<path d="M0 0 C0 0.99 0 1.98 0 3 C-0.804375 3.474375 -1.60875 3.94875 -2.4375 4.4375 C-5.1578895 5.73355856 -5.1578895 5.73355856 -5.8125 8.1875 C-5.9053125 9.0846875 -5.9053125 9.0846875 -6 10 C-6.99 10 -7.98 10 -9 10 C-9.32523926 6.42236811 -9.42956587 4.60457419 -7.3125 1.625 C-4.61209763 -0.27258004 -3.22939919 -0.35882213 0 0 Z " fill="#46C4F2" transform="translate(82,41)"/>
<path d="M0 0 C0.99 0.33 1.98 0.66 3 1 C3.433125 1.9590625 3.433125 1.9590625 3.875 2.9375 C5.39098648 5.71680854 7.05867273 6.07115981 10 7 C10 7.99 10 8.98 10 10 C7.8125 10.3125 7.8125 10.3125 5 10 C2.1875 7.8125 2.1875 7.8125 0 5 C-0.3125 2.1875 -0.3125 2.1875 0 0 Z " fill="#3FC2F1" transform="translate(73,93)"/>
<path d="M0 0 C3.875 0.875 3.875 0.875 5 2 C6.51469448 2.23192865 8.03754562 2.41215238 9.5625 2.5625 C10.38878906 2.64628906 11.21507813 2.73007813 12.06640625 2.81640625 C12.70449219 2.87699219 13.34257813 2.93757813 14 3 C13.67 3.99 13.34 4.98 13 6 C4.85614849 6.62645012 4.85614849 6.62645012 1.4375 4.125 C0 2 0 2 0 0 Z " fill="#3CC1F1" transform="translate(80,90)"/>
<path d="M0 0 C0.99 0 1.98 0 3 0 C3 4.62 3 9.24 3 14 C2.01 14 1.02 14 0 14 C0 9.38 0 4.76 0 0 Z " fill="#5BCBF3" transform="translate(90,115)"/>
<path d="M0 0 C4.62 0 9.24 0 14 0 C14 0.99 14 1.98 14 3 C9.38 3 4.76 3 0 3 C0 2.01 0 1.02 0 0 Z " fill="#38C0F1" transform="translate(107,100)"/>
<path d="M0 0 C0.99 0 1.98 0 3 0 C3 4.62 3 9.24 3 14 C2.01 14 1.02 14 0 14 C0 9.38 0 4.76 0 0 Z " fill="#41C2F1" transform="translate(80,71)"/>
<path d="M0 0 C0.99 0 1.98 0 3 0 C3 4.62 3 9.24 3 14 C2.01 14 1.02 14 0 14 C0 9.38 0 4.76 0 0 Z " fill="#41C2F1" transform="translate(125,68)"/>
<path d="M0 0 C0.99 0 1.98 0 3 0 C3 4.62 3 9.24 3 14 C2.01 14 1.02 14 0 14 C0 9.38 0 4.76 0 0 Z " fill="#3EC2F1" transform="translate(80,52)"/>
<path d="M0 0 C4.62 0 9.24 0 14 0 C14 0.99 14 1.98 14 3 C9.38 3 4.76 3 0 3 C0 2.01 0 1.02 0 0 Z " fill="#38C0F0" transform="translate(105,48)"/>
<path d="M0 0 C4.62 0 9.24 0 14 0 C14 0.99 14 1.98 14 3 C9.38 3 4.76 3 0 3 C0 2.01 0 1.02 0 0 Z " fill="#37C0F1" transform="translate(86,48)"/>
<path d="M0 0 C6.38342541 0.60220994 6.38342541 0.60220994 8.9375 2.25 C10.35440053 4.58371852 10.21718696 6.32136078 10 9 C7 8 7 8 5.5625 6 C3.77195598 3.70810365 2.81872737 3.38878998 0 3 C0 2.01 0 1.02 0 0 Z " fill="#3BC1F1" transform="translate(125,41)"/>
<path d="M0 0 C4.62 0 9.24 0 14 0 C14 0.99 14 1.98 14 3 C9.71 3 5.42 3 1 3 C0.67 2.01 0.34 1.02 0 0 Z " fill="#35BFF0" transform="translate(88,100)"/>
<path d="M0 0 C1.32 0 2.64 0 4 0 C4.33 1.98 4.66 3.96 5 6 C5.99 5.67 6.98 5.34 8 5 C7.67 6.65 7.34 8.3 7 10 C6.34 10 5.68 10 5 10 C4.01 8.02 3.02 6.04 2 4 C1.67 5.98 1.34 7.96 1 10 C0.67 10 0.34 10 0 10 C0 6.7 0 3.4 0 0 Z " fill="#3FC2F1" transform="translate(180,122)"/>
<path d="M0 0 C0.99 0.33 1.98 0.66 3 1 C3.1953125 3.05078125 3.390625 5.1015625 3.5859375 7.15234375 C3.72257813 7.76207031 3.85921875 8.37179688 4 9 C4.66 9.33 5.32 9.66 6 10 C4.68 10.33 3.36 10.66 2 11 C0.57741188 7.17679443 -0.24042276 4.08718695 0 0 Z " fill="#59CAF3" transform="translate(2,115)"/>
<path d="M0 0 C2.475 0.99 2.475 0.99 5 2 C5 2.33 5 2.66 5 3 C3.35 3 1.7 3 0 3 C0 6.3 0 9.6 0 13 C-0.99 13.33 -1.98 13.66 -3 14 C-3.08114106 12.22992286 -3.13925505 10.45877902 -3.1875 8.6875 C-3.22230469 7.70136719 -3.25710937 6.71523437 -3.29296875 5.69921875 C-3 3 -3 3 -1.48828125 1.14453125 C-0.99714844 0.76683594 -0.50601562 0.38914062 0 0 Z " fill="#65CEF4" transform="translate(25,115)"/>
<path d="M0 0 C0 0.99 0 1.98 0 3 C-1.65 3 -3.3 3 -5 3 C-5 4.32 -5 5.64 -5 7 C-2.69 7 -0.38 7 2 7 C2 7.33 2 7.66 2 8 C-0.64 8 -3.28 8 -6 8 C-6.33 5.69 -6.66 3.38 -7 1 C-4.53721199 -0.231394 -2.7204945 -0.07159196 0 0 Z " fill="#6ED1F4" transform="translate(140,122)"/>
<path d="M0 0 C1.98 0 3.96 0 6 0 C5.67 1.65 5.34 3.3 5 5 C3.35 5 1.7 5 0 5 C0 3.35 0 1.7 0 0 Z " fill="#E4F6FD" transform="translate(71,118)"/>
<path d="M0 0 C0.99 0.33 1.98 0.66 3 1 C3.33 3.31 3.66 5.62 4 8 C3.01 8.495 3.01 8.495 2 9 C2 8.01 2 7.02 2 6 C1.01 6.33 0.02 6.66 -1 7 C-0.67 4.69 -0.34 2.38 0 0 Z " fill="#3BC1F1" transform="translate(169,115)"/>
<path d="M0 0 C3.3 0 6.6 0 10 0 C9.67 1.65 9.34 3.3 9 5 C8.34 5 7.68 5 7 5 C7 4.01 7 3.02 7 2 C4.69 2 2.38 2 0 2 C0 1.34 0 0.68 0 0 Z " fill="#3AC0F1" transform="translate(95,115)"/>
<path d="M0 0 C0 0.66 0 1.32 0 2 C-2.64 1.67 -5.28 1.34 -8 1 C-8 4.96 -8 8.92 -8 13 C-8.33 13 -8.66 13 -9 13 C-9 8.71 -9 4.42 -9 0 C-3 -1 -3 -1 0 0 Z " fill="#5ECCF3" transform="translate(59,117)"/>
<path d="M0 0 C1.65 0 3.3 0 5 0 C5 1.32 5 2.64 5 4 C3.35 4.33 1.7 4.66 0 5 C0 3.35 0 1.7 0 0 Z " fill="#E7F7FD" transform="translate(38,118)"/>
<path d="M0 0 C1.32 0.33 2.64 0.66 4 1 C4.33 2.65 4.66 4.3 5 6 C3.824375 5.9690625 3.824375 5.9690625 2.625 5.9375 C0.01885039 5.81315937 0.01885039 5.81315937 -2 7 C-1.34 4.69 -0.68 2.38 0 0 Z " fill="#98DEF7" transform="translate(167,120)"/>
<path d="M0 0 C0.66 1.32 1.32 2.64 2 4 C4.0335948 5.26804566 4.0335948 5.26804566 6 6 C4.02 6 2.04 6 0 6 C-0.33 6.99 -0.66 7.98 -1 9 C-1.66 9 -2.32 9 -3 9 C-2.01 6.03 -1.02 3.06 0 0 Z " fill="#4CC6F2" transform="translate(167,123)"/>
<path d="M0 0 C0.33 0 0.66 0 1 0 C1.125 6.75 1.125 6.75 0 9 C-0.66 9 -1.32 9 -2 9 C-2.33 6.69 -2.66 4.38 -3 2 C-2.34 2 -1.68 2 -1 2 C-0.67 1.34 -0.34 0.68 0 0 Z " fill="#31BDF0" transform="translate(8,123)"/>
<path d="M0 0 C2.31 0 4.62 0 7 0 C7.6875 1.75 7.6875 1.75 8 4 C6.6875 6.25 6.6875 6.25 5 8 C4.34 8 3.68 8 3 8 C4.875 3.25 4.875 3.25 6 1 C4.02 1 2.04 1 0 1 C0 0.67 0 0.34 0 0 Z " fill="#62CDF3" transform="translate(95,117)"/>
<path d="M0 0 C0.91007812 0.00902344 1.82015625 0.01804687 2.7578125 0.02734375 C3.45648438 0.03894531 4.15515625 0.05054688 4.875 0.0625 C4.875 0.3925 4.875 0.7225 4.875 1.0625 C2.235 1.3925 -0.405 1.7225 -3.125 2.0625 C-1.475 2.3925 0.175 2.7225 1.875 3.0625 C1.875 3.3925 1.875 3.7225 1.875 4.0625 C-0.435 4.0625 -2.745 4.0625 -5.125 4.0625 C-5.125 3.4025 -5.125 2.7425 -5.125 2.0625 C-5.785 1.7325 -6.445 1.4025 -7.125 1.0625 C-4.60024538 -0.19987731 -2.81299534 -0.03606404 0 0 Z " fill="#6ED1F4" transform="translate(104.125,15.9375)"/>
<path d="M0 0 C1.98 0 3.96 0 6 0 C6 1.65 6 3.3 6 5 C5.01 5.495 5.01 5.495 4 6 C4 4.68 4 3.36 4 2 C2.68 2 1.36 2 0 2 C0 1.34 0 0.68 0 0 Z " fill="#3EC2F1" transform="translate(157,124)"/>
<path d="M0 0 C1.04449911 3.13349732 0.93423645 3.98968256 0 7 C-0.99 7 -1.98 7 -3 7 C-2.25 2.25 -2.25 2.25 0 0 Z " fill="#38C0F1" transform="translate(76,44)"/>
<path d="M0 0 C0.99 0.33 1.98 0.66 3 1 C2.67 2.65 2.34 4.3 2 6 C1.01 5.67 0.02 5.34 -1 5 C-0.67 3.35 -0.34 1.7 0 0 Z " fill="#55C9F3" transform="translate(133,92)"/>
</svg>
